<?xml version="1.0" standalone="no"?>
<!DOCTYPE svg PUBLIC "-//W3C//DTD SVG 20010904//EN"
 "http://www.w3.org/TR/2001/REC-SVG-20010904/DTD/svg10.dtd">
<svg version="1.0" xmlns="http://www.w3.org/2000/svg"
 width="440.000000pt" height="76.000000pt" viewBox="0 0 440.000000 76.000000"
 preserveAspectRatio="xMidYMid meet">

<g transform="translate(0.000000,76.000000) scale(0.100000,-0.100000)"
fill="#000000" stroke="none">
<path d="M867 522 c-18 -20 -22 -42 -9 -42 12 0 42 34 42 48 0 17 -15 15 -33
-6z"/>
<path d="M1335 501 c-8 -15 3 -31 21 -31 9 0 14 7 12 17 -4 20 -24 28 -33 14z"/>
<path d="M1850 490 c0 -11 6 -20 13 -20 19 0 27 10 20 26 -8 21 -33 17 -33 -6z"/>
<path d="M2425 501 c-8 -15 3 -31 21 -31 9 0 14 7 12 17 -4 20 -24 28 -33 14z"/>
<path d="M1193 493 c-25 -5 -53 -38 -53 -64 0 -24 29 -46 78 -59 36 -9 43 -15
40 -33 -4 -28 -58 -36 -78 -13 -15 20 -40 21 -40 3 0 -27 36 -47 82 -47 51 0
78 21 78 62 0 32 -16 45 -71 61 -33 10 -44 18 -44 32 0 15 8 21 29 23 16 2 33
-1 39 -7 6 -6 19 -11 29 -11 29 0 5 36 -33 49 -18 6 -32 10 -33 10 -1 -1 -11
-4 -23 -6z"/>
<path d="M2610 390 c0 -103 1 -110 20 -110 17 0 20 7 20 49 0 64 7 81 35 81
28 0 35 -17 35 -81 0 -37 4 -49 15 -49 12 0 15 14 15 68 0 40 -5 73 -12 80
-15 15 -61 15 -76 0 -9 -9 -12 -3 -12 30 0 35 -3 42 -20 42 -19 0 -20 -7 -20
-110z"/>
<path d="M3450 390 c0 -103 1 -110 20 -110 19 0 20 7 20 110 0 103 -1 110 -20
110 -19 0 -20 -7 -20 -110z"/>
<path d="M2925 478 c-2 -7 -18 -51 -35 -97 -35 -100 -36 -101 -11 -101 12 0
21 9 25 25 5 21 12 25 46 25 34 0 42 -4 50 -25 6 -15 17 -25 29 -25 17 0 16 8
-18 105 -31 92 -39 105 -59 105 -12 0 -25 -6 -27 -12z m55 -115 c0 -2 -12 -3
-26 -3 -25 0 -26 2 -19 37 11 58 17 60 31 12 8 -24 14 -45 14 -46z"/>
<path d="M887 474 c-3 -4 -31 -6 -61 -5 -49 1 -58 -2 -72 -24 -21 -33 -14
-102 14 -142 19 -27 25 -29 83 -28 56 1 65 4 82 28 20 26 20 27 2 61 -16 30
-17 39 -6 62 11 25 10 30 -5 41 -20 15 -28 16 -37 7z"/>
<path d="M2510 460 c0 -11 -7 -20 -15 -20 -8 0 -15 -7 -15 -15 0 -8 7 -15 15
-15 11 0 15 -13 15 -53 0 -29 5 -58 12 -65 17 -17 58 -15 58 3 0 8 -7 15 -15
15 -11 0 -15 12 -15 50 0 38 4 50 15 50 8 0 15 7 15 15 0 8 -7 15 -15 15 -8 0
-15 9 -15 20 0 13 -7 20 -20 20 -13 0 -20 -7 -20 -20z"/>
<path d="M1330 360 c0 -73 2 -80 20 -80 18 0 20 7 20 80 0 73 -2 80 -20 80
-18 0 -20 -7 -20 -80z"/>
<path d="M1426 421 c-10 -11 -18 -36 -18 -56 0 -20 8 -45 18 -56 19 -22 64
-25 83 -6 10 10 12 7 9 -12 -4 -33 -32 -49 -58 -33 -27 16 -51 15 -44 -2 8
-20 55 -35 88 -29 43 9 56 38 56 130 0 76 -2 83 -20 83 -11 0 -20 -5 -20 -12
0 -9 -3 -9 -12 0 -18 18 -63 14 -82 -7z m82 -23 c28 -28 3 -84 -34 -76 -28 5
-40 33 -26 62 12 28 40 34 60 14z"/>
<path d="M1600 360 c0 -64 3 -80 15 -80 11 0 15 12 15 48 0 55 18 86 46 80 16
-3 19 -13 22 -66 3 -54 6 -62 22 -62 18 0 20 7 20 58 0 69 -19 102 -59 102
-15 0 -32 -5 -39 -12 -9 -9 -12 -9 -12 0 0 7 -7 12 -15 12 -12 0 -15 -16 -15
-80z"/>
<path d="M1850 360 c0 -64 3 -80 15 -80 12 0 15 16 15 80 0 64 -3 80 -15 80
-12 0 -15 -16 -15 -80z"/>
<path d="M1930 360 c0 -64 3 -80 15 -80 11 0 15 12 15 48 0 55 18 86 46 80 16
-3 19 -13 22 -66 3 -54 6 -62 22 -62 18 0 20 7 20 58 0 69 -19 102 -59 102
-15 0 -32 -5 -39 -12 -9 -9 -12 -9 -12 0 0 7 -7 12 -15 12 -12 0 -15 -16 -15
-80z"/>
<path d="M2172 428 c3 -7 13 -43 23 -80 14 -53 22 -68 36 -68 14 0 23 15 36
58 l17 57 12 -40 c7 -22 13 -48 13 -58 1 -13 7 -17 23 -15 19 2 26 16 44 81
20 72 20 77 4 77 -13 0 -22 -15 -32 -57 l-15 -58 -17 58 c-24 80 -47 79 -68
-5 l-15 -63 -13 63 c-10 51 -16 62 -32 62 -12 0 -18 -5 -16 -12z"/>
<path d="M2420 360 c0 -73 2 -80 20 -80 18 0 20 7 20 80 0 73 -2 80 -20 80
-18 0 -20 -7 -20 -80z"/>
<path d="M3080 335 c0 -87 3 -105 15 -105 10 0 15 10 15 34 0 34 0 34 29 23
44 -16 78 3 87 47 14 77 -26 122 -87 99 -16 -6 -29 -7 -29 -2 0 5 -7 9 -15 9
-12 0 -15 -18 -15 -105z m98 63 c7 -7 12 -24 12 -38 0 -51 -53 -70 -70 -25
-19 51 24 97 58 63z"/>
<path d="M3260 335 c0 -98 1 -105 20 -105 16 0 20 7 20 37 0 29 3 34 12 25 18
-18 63 -14 82 7 23 26 24 96 1 121 -20 22 -65 26 -83 8 -9 -9 -12 -9 -12 0 0
7 -9 12 -20 12 -19 0 -20 -7 -20 -105z m112 50 c22 -49 -25 -98 -60 -63 -7 7
-12 24 -12 38 0 51 52 69 72 25z"/>
<path d="M3541 414 c-30 -39 -24 -102 13 -126 16 -11 64 -10 87 2 33 18 21 30
-28 27 -38 -2 -48 1 -51 16 -3 15 4 17 52 17 48 0 56 3 56 19 0 34 -38 71 -75
71 -24 0 -39 -7 -54 -26z m87 -21 c2 -9 -8 -13 -32 -13 -34 0 -44 8 -29 24 11
11 56 2 61 -11z"/>
</g>
</svg>
